PathFileType	4	(X/Y/Z)	Kaydara	
DataRate	CameraRate	NumFrames	NumMarkers	Units	OrigDataRate	OrigDataStartFrame	OrigNumFrames	
120.00	120.00	4	72	mm	120.00	98	261	
Frame#	Time	Hips			RightUpLeg			RightLeg			RightFoot			RightFoot_End			LeftUpLeg			LeftLeg			LeftFoot			LeftFoot_End			Spine			Spine1			Spine2			Spine3			Neck			Head			Head_End			RightShoulder			RightArm			RightForeArm			RightHand			RightHandThumb1			RightHandThumb2			RightHandThumb3			RightHandThumb3_End			RightInHandIndex			RightHandIndex1			RightHandIndex2			RightHandIndex3			RightHandIndex3_End			RightInHandMiddle			RightHandMiddle1			RightHandMiddle2			RightHandMiddle3			RightHandMiddle3_End			RightInHandRing			RightHandRing1			RightHandRing2			RightHandRing3			RightHandRing3_End			RightInHandPinky			RightHandPinky1			RightHandPinky2			RightHandPinky3			RightHandPinky3_End			LeftShoulder			LeftArm			LeftForeArm			LeftHand			LeftHandThumb1			LeftHandThumb2			LeftHandThumb3			LeftHandThumb3_End			LeftInHandIndex			LeftHandIndex1			LeftHandIndex2			LeftHandIndex3			LeftHandIndex3_End			LeftInHandMiddle			LeftHandMiddle1			LeftHandMiddle2			LeftHandMiddle3			LeftHandMiddle3_End			LeftInHandRing			LeftHandRing1			LeftHandRing2			LeftHandRing3			LeftHandRing3_End			LeftInHandPinky			LeftHandPinky1			LeftHandPinky2			LeftHandPinky3			LeftHandPinky3_End			
		X1	Y1	Z1	X2	Y2	Z2	X3	Y3	Z3	X4	Y4	Z4	X5	Y5	Z5	X6	Y6	Z6	X7	Y7	Z7	X8	Y8	Z8	X9	Y9	Z9	X10	Y10	Z10	X11	Y11	Z11	X12	Y12	Z12	X13	Y13	Z13	X14	Y14	Z14	X15	Y15	Z15	X16	Y16	Z16	X17	Y17	Z17	X18	Y18	Z18	X19	Y19	Z19	X20	Y20	Z20	X21	Y21	Z21	X22	Y22	Z22	X23	Y23	Z23	X24	Y24	Z24	X25	Y25	Z25	X26	Y26	Z26	X27	Y27	Z27	X28	Y28	Z28	X29	Y29	Z29	X30	Y30	Z30	X31	Y31	Z31	X32	Y32	Z32	X33	Y33	Z33	X34	Y34	Z34	X35	Y35	Z35	X36	Y36	Z36	X37	Y37	Z37	X38	Y38	Z38	X39	Y39	Z39	X40	Y40	Z40	X41	Y41	Z41	X42	Y42	Z42	X43	Y43	Z43	X44	Y44	Z44	X45	Y45	Z45	X46	Y46	Z46	X47	Y47	Z47	X48	Y48	Z48	X49	Y49	Z49	X50	Y50	Z50	X51	Y51	Z51	X52	Y52	Z52	X53	Y53	Z53	X54	Y54	Z54	X55	Y55	Z55	X56	Y56	Z56	X57	Y57	Z57	X58	Y58	Z58	X59	Y59	Z59	X60	Y60	Z60	X61	Y61	Z61	X62	Y62	Z62	X63	Y63	Z63	X64	Y64	Z64	X65	Y65	Z65	X66	Y66	Z66	X67	Y67	Z67	X68	Y68	Z68	X69	Y69	Z69	X70	Y70	Z70	X71	Y71	Z71	X72	Y72	Z72	

98	0.808	4081.203	893.81699	129.612	4170.724676264874	901.7179670269129	93.61267069108104	4058.3265092631864	502.05140009023586	36.7320349209229	4041.2126242982094	111.39958563359325	24.498304932201282	3926.5244835044127	42.488357272696	163.7670471471211	4004.069711100756	860.0405676873426	179.62429787586984	3898.3296050871504	471.92609295685486	295.83663410766394	3780.754620075929	80.96034589570804	465.8700220646022	3634.956134584103	36.15141276904572	351.30619197244846	4022.3255444356982	1013.1423089404025	77.60575005015903	3965.2126528032563	1073.9909079400095	28.233554467238754	3902.06548422853	1131.2298454539941	-26.02118805872643	3837.213457830362	1176.1789040599633	-82.55610927331993	3766.159663501034	1225.5298253738667	-139.8363664100188	3691.7984326710766	1263.4978657042484	-183.69250703166747	3552.7383138755326	1340.8160536364303	-195.76307047232027	3813.303556315095	1224.7268689451464	-135.44848090683448	3900.8461353262933	1278.238364412426	-202.30876840998857	4017.105274408997	1075.7888591646067	-302.4521591960141	4207.237601249619	992.5924297400088	-413.8866893413328	4217.37161992928	1010.1493597431594	-434.9147658478853	4217.437051722297	1012.2962694983819	-464.15280269347227	4219.141944732242	1010.2416591696874	-484.08874652099945	4221.982745840852	1005.4921267840484	-500.34453581217343	4226.0629679406475	999.6608817129193	-434.7087847339408	4253.134213034657	994.5881086561067	-467.5964101318337	4262.287083693984	987.716876453353	-493.7425364761997	4259.20842826287	984.8963021515941	-509.58134975151523	4250.745270359162	983.5406349659548	-522.4103705119426	4229.173432172181	990.0239740501153	-432.5619394069393	4257.2631225180385	979.8644878291624	-463.4773832192402	4267.561238533873	971.1073207015493	-491.6221320884615	4263.995931380042	967.1001095118679	-510.5459016854361	4254.808119072378	965.322996759319	-524.4931536337068	4230.79474422913	983.3546582070036	-430.17662097376893	4257.71138228341	968.4886931599347	-455.72657232160424	4266.959094829805	959.5846965605429	-479.8148409871812	4263.664416863291	955.0443379648083	-497.8331623558932	4255.0939456280485	953.0534996699037	-510.835658965257	4230.976445936847	975.7383711122399	-426.70570597280175	4256.16948250355	957.4389342004206	-447.91235424853517	4263.880574898214	948.3904589782109	-466.39931911458086	4261.625381491123	944.1506661121775	-479.1539941655071	4254.118490125108	941.8530123506278	-490.4488109405253	3766.1783483987006	1191.9752689054408	-106.8152881624325	3699.002848880687	1092.4354480025838	-66.63857694100334	3912.896402074241	1028.1486650990857	-192.23092841242357	4131.010851961329	994.0751553618808	-308.9344949449104	4146.210179013887	1016.3864469189955	-320.9117102666134	4176.652870632057	1025.3159767506481	-314.7129157691199	4199.92788686771	1027.9777396895072	-310.10628721305477	4221.106124947046	1027.154017674422	-306.0180391257707	4154.502299683294	1006.185337970475	-322.9498309853488	4200.4373940795185	1009.3270207652129	-334.727100142034	4235.286601593102	1008.8323796674465	-332.35715757141764	4253.280324316964	1009.7068014021012	-324.4063766606785	4265.696838596445	1011.2278191554934	-313.4563199519086	4158.683428110732	996.2747382187764	-321.2495393854975	4205.747886764602	993.9791579821577	-331.82005928024324	4244.181599495902	992.1181816350843	-328.9582306371087	4266.085320266561	992.539131908209	-319.23356573369875	4279.766007589941	993.8951824978606	-307.1878778900445	4160.458632705703	989.1973246556228	-319.85547871283416	4204.159572742337	981.0097664633809	-328.4338319551711	4237.999709767429	978.0408794055737	-325.6397586118109	4259.308763300411	977.7316624826776	-316.10037733452464	4272.257906720939	978.6677522179581	-304.6989626906094	4161.225620579124	980.9129898037902	-317.05886316577113	4201.773495856091	968.3125924186968	-323.5680747888007	4229.213168537306	963.8696399742379	-320.8249236677269	4244.9213906440455	962.6449088239995	-313.6222051320373	4256.4873651507305	962.8990850082746	-303.38160470467966
99	0.817	4081.203	893.81699	129.612	4170.588321525137	901.6131971903118	93.67173386995155	4058.0608901690503	501.93455555226194	37.126982747625505	4041.51614273641	111.45674859813691	24.69158962490306	3926.9668986894976	42.48230774666939	163.98935177849432	4004.173695372523	860.1312355228479	179.57114236182764	3898.4764487453826	472.04983587434486	295.93364156424246	3780.752489391605	81.18393646657948	466.0802589224493	3635.0176434279724	36.36137607769797	351.4337850566373	4022.4813338844033	1013.1997530512804	77.56391297608448	3965.4471877286687	1074.118497191676	28.182419031130944	3902.379666704477	1131.4416914941962	-26.081885621408063	3837.6017921206367	1176.4928125871218	-82.62957864587597	3766.6228147819747	1225.9458634604066	-139.92206458210367	3692.3032750706047	1263.9895195370555	-183.7646218260499	3553.2477790455932	1341.312593017106	-195.8314170956632	3813.713594797521	1225.1194105768973	-135.47100548690324	3901.217033996749	1278.7902259394527	-202.1189306320323	4017.9335086562096	1076.798346849849	-302.28888576944166	4208.180663476883	994.4609084989353	-414.077968605828	4218.431486167123	1012.2394369099654	-435.0100434072074	4218.608058262309	1014.5788008669077	-464.32563517664806	4220.379823218634	1012.6468702055722	-484.3357788044568	4223.267367610373	1007.9899049480539	-500.6706974351832	4227.094751680209	1001.7335814732584	-434.8553369635097	4254.267165908786	996.9180112389228	-467.8027441028192	4263.49613430287	990.2099481895806	-494.05613967472954	4260.468639132042	987.4714172782135	-509.9766017624963	4252.050422950296	986.1705726291123	-522.8832934741865	4230.173336614563	992.0561108619679	-432.7644469552572	4258.344458665049	982.1255576188413	-463.7684474520239	4268.721084350385	973.540234429336	-492.0375186560366	4265.215327533036	969.6290275613109	-511.0632846526949	4256.075633865888	967.9104528719026	-525.0972191262474	4231.769437521615	985.3517128847175	-430.4166121782733	4258.736857386251	970.6608660231823	-456.0769364383159	4268.048245721418	961.8999431102658	-480.2808642882188	4264.808483295886	957.4486275485813	-498.401443663804	4256.282059286825	955.5111419804444	-511.48728067727467	4231.919990215337	977.68645570163	-426.9912867268133	4257.140075701323	959.5179898574064	-448.32553829086686	4264.89451827566	950.5728571601413	-466.91602704934655	4262.675685618912	946.3925826272724	-479.7505667546989	4255.2056865593995	944.1390645916622	-491.12224653297324	3766.645748226134	1192.349774961157	-106.95736986703426	3699.4435640481393	1092.9021186170303	-67.04529337258282	3913.2415080654355	1029.0650256027852	-192.4773051145914	4131.384942333369	995.854606029531	-308.9194696823174	4146.580799554744	1018.3415804093077	-320.76579089731024	4176.9660225492	1027.374749086538	-314.4289507828389	4200.201971971114	1030.1056763496617	-309.73738959672505	4221.34845816886	1029.3370388723479	-305.58791933326586	4154.881836334071	1008.1553161758512	-322.83442274251644	4200.803607729916	1011.5358094707509	-334.4895815089859	4235.612483111803	1011.1565345473213	-332.0220276595033	4253.564339081443	1012.0587041868068	-324.0039782934058	4265.934873372764	1013.5730256013887	-312.9938034455765	4159.064547619074	998.2258028714585	-321.1682475763391	4206.116875761554	996.1529354832322	-331.6381212607951	4244.506791673791	994.4145136451988	-328.6746629976991	4266.3601038711	994.8673400425116	-318.87118386534627	4279.990530280195	996.2152864864977	-306.7608540319144	4160.841529139012	991.1294771182037	-319.8015839583876	4204.534072847876	983.126687945812	-328.31403892046063	4238.336270384385	980.2608549618716	-325.4365304477586	4259.596825231918	979.9803866716136	-315.8238603883579	4272.498769229589	980.9079087315502	-304.36296085942945	4161.608438049703	982.8121417823498	-317.0386859828615	4202.149630374296	970.3627701676733	-323.50879824990426	4229.5593210782135	965.9956567435621	-320.7071513535316	4245.232360587288	964.7886629004283	-313.45499732117815	4256.756635231885	965.0333893015747	-303.1640177592227
100	0.825	4081.203	893.81699	129.612	4170.441102363298	901.5034811974649	93.7283573112631	4057.803851772267	501.8092448374698	37.509018138816124	4041.84571338166	111.51273354750685	24.849702212730737	3927.440756819172	42.48005016234661	164.18076567431572	4004.288777164855	860.2268166198343	179.52000847202416	3898.6441001881994	472.172830799897	296.0220132784862	3780.7669691122296	81.39452778743092	466.24397812654365	3635.08645478605	36.55675726461872	351.52997299336045	4022.6372654367433	1013.2573368318401	77.52303310972748	3965.679799703668	1074.2444053243032	28.13296987505184	3902.689386301223	1131.649312776296	-26.139928585020773	3837.9824923973288	1176.798825638637	-82.69887462227886	3767.0752403104293	1226.3500600500543	-140.0023207732305	3692.794501765666	1264.465836295184	-183.82813887366072	3553.7437259373933	1341.7936083024904	-195.8933502021976	3814.110365238375	1225.4971516265687	-135.49064586252734	3901.554112088288	1279.3112959498242	-201.93988603067953	4018.691789608125	1077.7517853256484	-302.09676138846515	4209.029974071119	996.2503023848507	-414.187466367855	4219.3923668540665	1014.243016723877	-435.0207055249034	4219.6771674371275	1016.7702846796327	-464.4042049009993	4221.514030674116	1014.9587425309992	-484.48107262552645	4224.447056937646	1010.3931852233549	-500.88824074082135	4228.0277376223285	1003.7221362318846	-434.9146738737721	4255.2956011690585	999.1597826689106	-467.9091266452751	4264.597982125744	992.6127218928914	-494.25892719250527	4261.620925455651	989.954814642945	-510.2547900884623	4253.247693191653	988.7075686105851	-523.2343231190775	4231.075394705009	994.00665742329	-432.87802782559646	4259.322883874835	984.3025307954919	-463.95723740588005	4269.7752347134865	975.8870376491195	-492.3385887633803	4266.328227679876	972.0702906933079	-511.45872351486537	4257.236732720198	970.4089965768998	-525.5740123701734	4232.647089880676	987.2690825778042	-430.56680546102086	4259.661415101214	972.7527580869162	-456.3248218038039	4269.034209258402	964.1335160621907	-480.6337422594522	4265.848673458294	959.7699461570335	-498.8491320503663	4257.366411583657	957.8847222852697	-512.0132567432731	4232.767687299162	979.5571762204796	-427.1863331527054	4258.0119576010275	961.5205606812681	-448.6361421196837	4265.80819485583	952.6782233091308	-467.3214032265943	4263.625347168376	948.5567956836964	-480.2302732927152	4256.192415011022	946.3466049975654	-491.67428164678944	3767.106955171348	1192.718099573148	-107.0920059932812	3699.892062751259	1093.379460233644	-67.42118656490265	3913.567483667057	1029.9342138404734	-192.685614888031	4131.718107853814	997.5443130547153	-308.8561494298595	4146.899646505963	1020.2051908604385	-320.57947030102633	4177.221830333058	1029.3489737739105	-314.1106557442598	4200.415685955786	1032.1547085439386	-309.3370700840394	4221.528626098349	1031.4465322109895	-305.1276726829327	4155.211226776685	1010.0357764995355	-322.67446280257303	4201.110619491082	1013.6611450102455	-334.20895585167824	4235.875174477596	1013.40491695995	-331.6455602907422	4253.783962512249	1014.3403984248978	-323.5627250572114	4266.108384722675	1015.8531608218477	-312.4954195130646	4159.398264342801	1000.0894396659133	-321.0388001264652	4206.43111288574	998.2463299618412	-331.40748703082	4244.773274267372	996.6391043498929	-328.343850725055	4266.574917809162	997.1306445065044	-318.464322733515	4280.155030640531	998.4761686967144	-306.2925077381067	4161.179172596699	992.975494714679	-319.69693450825883	4204.858542062158	985.1648265498917	-328.14070322626003	4238.619765511087	982.4098350915825	-325.180536063974	4259.830826349545	982.1648464507068	-315.4969848407779	4272.685625749216	983.0892074765746	-303.9794457947816	4161.948897872473	984.6267004657394	-316.9648433274257	4202.480740765182	972.3359533225466	-323.39145139457685	4229.858687447826	968.051281453886	-320.5311799448682	4245.496141669935	966.8671119126282	-313.2309835482398	4256.978951192117	967.1072799407624	-302.8919364776537
101	0.833	4081.203	893.81699	129.612	4170.282340140975	901.3899936025409	93.78213525214343	4057.5557095873405	501.67621247705387	37.8799561006415	4042.1986592974713	111.56892765285518	24.974703092625937	3927.943562607017	42.48246455748128	164.34310518532433	4004.4162188014775	860.3265677993043	179.47159001641614	3898.8250607664277	472.2956123745971	296.0980404115519	3780.7953743852645	81.588510843303	466.3526044679926	3635.159741032253	36.73940519119219	351.58378560866333	4022.7907301385467	1013.3131911977666	77.48175899682063	3965.9086434050523	1074.3663405352763	28.08239867056954	3902.994084472685	1131.8503339949227	-26.199745534354363	3838.3568631846056	1177.095031351994	-82.77013984372661	3767.5202093691864	1226.7411035064056	-140.08518589715305	3693.2768844828956	1264.9265023284024	-183.89356335219364	3554.230655243659	1342.2582667089112	-195.96089977143038	3814.496888282315	1225.857383168726	-135.51476480501748	3901.8654927184234	1279.7983681867793	-201.7666982362114	4019.3913286008046	1078.6558050693263	-301.882104977734	4209.799478760855	997.9653452341831	-414.22368887628784	4220.269388037358	1016.1650296345459	-434.9598404605289	4220.660122759674	1018.87213512533	-464.4048733674919	4222.560636262551	1017.1759653472915	-484.54279687209083	4225.53806522689	1012.6981487539434	-501.0164374920255	4228.876827811789	1005.6307890985738	-434.89866023927607	4256.235314319437	1001.3146570594851	-467.93059491568624	4265.608821275052	994.9228155038176	-494.3678857384329	4262.681622325416	992.3414870264272	-510.4341102082575	4254.353460784005	991.1441884826814	-523.4826532114844	4231.894182910356	995.8791379158246	-432.91314007258563	4260.213670050202	986.3956081373145	-464.0565445667479	4270.7393504567635	978.1438981937124	-492.5400651806272	4267.350440570174	974.4168577808407	-511.74830511294516	4258.30726240194	972.8089106513313	-525.9406667095287	4233.442026735326	989.1098732607653	-430.6365842714609	4260.499791423295	974.7641720680238	-456.48077076529904	4269.9320120396005	966.281619235848	-480.8854962436717	4266.800131029275	962.0013577565954	-499.18945624948475	4258.36216980756	960.1647672609187	-512.4277484725853	4233.533533513489	981.3531410639991	-427.2988969330395	4258.799304396119	963.4459615030619	-448.85246099057247	4266.635936460311	954.7028738407638	-467.6246035260005	4264.488746053971	950.6372750809217	-480.6029937444266	4257.093054834017	948.4673233797334	-492.1155322362144	3767.5641590690216	1193.0799241163697	-107.22661419051654	3700.349040775385	1093.8672118386728	-67.78318265257185	3913.880158121941	1030.7617314327842	-192.85595875447137	4132.009915764541	999.1250025730936	-308.753171506357	4147.1762211390405	1021.9548439905518	-320.3610051535293	4177.434757689097	1031.2086193609007	-313.7664429469029	4200.58574360759	1034.0887780603985	-308.91419931517	4221.664189504616	1033.4407855573502	-304.64685148477326	4155.496823548516	1011.8014887672049	-322.47949175186477	4201.369563965755	1015.6653892576752	-333.89716618074414	4236.087757707461	1015.5305453591087	-331.241029523733	4253.953339869637	1016.5002670956645	-323.0960597269531	4266.232298495034	1018.0135625223594	-311.9743061419096	4159.687422011374	1001.8388146583728	-320.87158999263863	4206.696208692769	1000.2195378509039	-331.14135403540547	4244.988302614434	998.7417823055326	-327.9805477703732	4266.738069779048	999.2731987283838	-318.0279898469142	4280.268558477108	1000.6186102367678	-305.79753743514874	4161.471812937412	994.7077269367651	-319.552470383277	4205.133479039735	987.0841993149671	-327.9277714386957	4238.851632058534	984.4386446034556	-324.8871808093573	4260.012955613324	984.2303098182842	-315.13545479181533	4272.821238387401	985.1537064699271	-303.5638566540456	4162.244065953575	986.32843432454	-316.84878716728923	4202.762183481482	974.192236720732	-323.2305810032337	4230.106601620306	969.9890591684161	-320.3128703893251	4245.708242146496	968.8286562540418	-312.9663134043269	4257.15011353282	969.0662611701903	-302.58131644691866
